#!OML:ASF E:\basketball\basketball\Project 1\Capture day 1\Session 1\Subject.ASF
:FULLY-SPECIFIED
:DEGREES
225
root 5.91541 14.0898 2.81465 -130.424 65.9608 -147.401
lowerback 19.2817 -7.19772 -0.78859
upperback 10.2421 -8.60914 1.80255
thorax 0.781504 -4.07549 3.87267
lowerneck -2.91339 9.47949 -6.58988
upperneck -16.5094 14.5484 6.66305
head -5.48235 7.52232 2.44734
rclavicle 6.99722e-014 1.11319e-014
rhumerus -41.4563 -10.0275 -83.0741
rradius 116.848
rwrist -61.3232
rhand -30.1126 20.9182
rfingers 7.12502
rthumb -3.42618 -9.03406
lclavicle 6.99722e-014 1.11319e-014
lhumerus -20.0634 -2.11682 86.3022
lradius 76.5566
lwrist 20.5134
lhand -30.8787 27.896
lfingers 7.12502
lthumb -4.16601 57.835
rfemur -53.3049 -3.13209 16.0627
rtibia 99.9194
rfoot -8.54702 -10.251
rtoes -36.4881
lfemur -14.605 15.7734 -29.4825
ltibia 48.9359
lfoot -22.098 -8.61196
ltoes 5.22225
226
root 6.39397 14.1379 2.65793 -131.163 65.6493 -148.255
lowerback 18.9423 -7.4079 -1.16244
upperback 9.93681 -8.97598 2.30375
thorax 0.798331 -4.30504 4.63697
lowerneck -2.95248 9.72431 -6.52053
upperneck -15.5894 14.6834 6.22597
head -5.16336 7.58753 2.3227
rclavicle -1.11319e-014 -1.59028e-015
rhumerus -39.9615 -9.63156 -82.9026
rradius 116.998
rwrist -59.859
rhand -29.7105 19.7366
rfingers 7.12502
rthumb -3.03793 -10.2215
lclavicle -1.11319e-014 -1.59028e-015
lhumerus -19.5682 -2.80301 86.2413
lradius 77.6246
lwrist 19.0894
lhand -31.7461 27.0164
lfingers 7.12502
lthumb -5.00353 56.9373
rfemur -55.9396 -2.48193 15.6177
rtibia 97.1253
rfoot -8.87093 -9.83025
rtoes -37.7163
lfemur -10.9812 15.1274 -28.5855
ltibia 45.5399
lfoot -19.7628 -8.81831
ltoes 4.57217
227
root 6.88161 14.1874 2.48943 -131.686 65.4296 -148.834
lowerback 18.5909 -7.57863 -1.52679
upperback 9.64529 -9.28677 2.81257
thorax 0.843829 -4.50575 5.38959
lowerneck -3.076 9.95545 -6.45012
upperneck -14.611 14.8134 5.80518
head -4.81438 7.65119 2.21324
rclavicle 5.56597e-014 -7.95139e-014
rhumerus -38.1303 -9.26099 -82.7987
rradius 117.008
rwrist -58.09
rhand -29.1283 18.6871
rfingers 7.12502
rthumb -2.47566 -11.2783
lclavicle 5.56597e-014 -7.95139e-014
lhumerus -19.4024 -3.52314 86.3127
lradius 78.601
lwrist 17.881
lhand -32.7404 26.4153
lfingers 7.12502
lthumb -5.96358 56.3114
rfemur -58.1048 -1.82095 15.1605
rtibia 93.7515
rfoot -9.25105 -9.15156
rtoes -39.0386
lfemur -7.23093 14.373 -27.7616
ltibia 41.8893
lfoot -16.9947 -8.70738
ltoes 3.73694
228
root 7.37627 14.2345 2.30988 -131.971 65.3224 -149.129
lowerback 18.2022 -7.7067 -1.85713
upperback 9.36667 -9.53514 3.3083
thorax 0.917965 -4.67328 6.0927
lowerneck -3.2696 10.1693 -6.35915
upperneck -13.5768 14.9341 5.40144
head -4.43719 7.70914 2.11582
rclavicle 5.08889e-014 2.54444e-014
rhumerus -35.9933 -8.90786 -82.8017
rradius 116.889
rwrist -56.0517
rhand -28.3478 17.7429
rfingers 7.12502
rthumb -1.72178 -12.2299
lclavicle 5.08889e-014 2.54444e-014
lhumerus -19.5743 -4.31265 86.5167
lradius 79.4505
lwrist 16.9042
lhand -33.7214 26.114
lfingers 7.12502
lthumb -6.91065 55.9812
rfemur -59.8296 -1.16099 14.7101
rtibia 89.8846
rfoot -9.69086 -8.24836
rtoes -40.4039
lfemur -3.41328 13.45 -27.0809
ltibia 38.068
lfoot -13.9361 -8.19808
ltoes 2.71158
229
root 7.8756 14.2754 2.12052 -132.025 65.3388 -149.161
lowerback 17.7536 -7.79216 -2.14128
upperback 9.10112 -9.7205 3.77663
thorax 1.02377 -4.80676 6.72242
lowerneck -3.52775 10.3644 -6.22759
upperneck -12.4922 15.0426 5.00535
head -4.03232 7.75914 2.02455
rclavicle 6.36111e-015 -2.38542e-014
rhumerus -33.5853 -8.55654 -82.9405
rradius 116.668
rwrist -53.8249
rhand -27.3841 16.8684
rfingers 7.12502
rthumb -0.7911 -13.1099
lclavicle 6.36111e-015 -2.38542e-014
lhumerus -20.0713 -5.18232 86.861
lradius 80.1255
lwrist 16.1462
lhand -34.5816 26.0566
lfingers 7.12502
lthumb -7.74091 55.8949
rfemur -61.1556 -0.532403 14.2879
rtibia 85.6235
rfoot -10.1738 -7.16916
rtoes -41.7596
lfemur 0.39526 12.2838 -26.6294
ltibia 34.1979
lfoot -10.7935 -7.23383
ltoes 1.48253
230
root 8.377 14.3069 1.92307 -131.865 65.4782 -148.969
lowerback 17.2268 -7.83696 -2.37075
upperback 8.8488 -9.84492 4.209
thorax 1.16449 -4.90684 7.26339
lowerneck -3.83268 10.5391 -6.05073
upperneck -11.1378 15.1069 4.4312
head -3.90242 7.80596 2.06637
rclavicle -2.8625e-014 -1.27222e-014
rhumerus -30.9469 -8.18935 -83.2335
rradius 116.386
rwrist -51.5083
rhand -26.2617 16.0295
rfingers 7.12502
rthumb 0.293027 -13.95
lclavicle -2.8625e-014 -1.27222e-014
lhumerus -20.863 -6.12636 87.3583
lradius 80.5697
lwrist 15.563
lhand -35.2551 26.1249
lfingers 7.12502
lthumb -8.39101 55.9382
rfemur -62.129 0.0261528 13.9201
rtibia 81.076
rfoot -10.6613 -5.97892
rtoes -43.0779
lfemur 4.09351 10.8157 -26.4951
ltibia 30.4531
lfoot -7.79759 -5.79971
ltoes 0.0188041
231
root 8.87813 14.3273 1.71934 -131.515 65.7302 -148.597
lowerback 16.6126 -7.84291 -2.53903
upperback 8.60898 -9.91033 4.60121
thorax 1.33983 -4.974 7.70708
lowerneck -4.22313 10.6897 -5.80775
upperneck -10.052 15.189 4.04275
head -3.3882 7.83343 1.95586
rclavicle 7.95139e-015 -2.22639e-014
rhumerus -28.124 -7.78826 -83.6911
rradius 116.087
rwrist -49.1756
rhand -25 15.2034
rfingers 7.12502
rthumb 1.51154 -14.771
lclavicle 7.95139e-015 -2.22639e-014
lhumerus -21.9094 -7.13058 88.0222
lradius 80.7277
lwrist 15.0938
lhand -35.7168 26.192
lfingers 7.12502
lthumb -8.83652 55.987
rfemur -62.7964 0.478218 13.6373
rtibia 76.3584
rfoot -11.106 -4.74169
rtoes -44.329
lfemur 7.55239 9.05162 -26.7399
ltibia 27.0752
lfoot -5.14967 -3.94993
ltoes -1.69709
232
root 9.37727 14.3363 1.51103 -131.047 66.0695 -148.12
lowerback 15.9322 -7.8149 -2.64586
upperback 8.38196 -9.92248 4.95065
thorax 1.53787 -5.01024 8.05505
lowerneck -4.69238 10.8133 -5.49467
upperneck -8.96129 15.2473 3.62718
head -2.85957 7.84826 1.83659
rclavicle -1.47896e-013 5.88403e-014
rhumerus -25.168 -7.33434 -84.3159
rradius 115.811
rwrist -46.838
rhand -23.6134 14.3789
rfingers 7.12502
rthumb 2.85067 -15.5818
lclavicle -1.47896e-013 5.88403e-014
lhumerus -23.1718 -8.17702 88.8664
lradius 80.5551
lwrist 14.6838
lhand -35.9825 26.1292
lfingers 7.12502
lthumb -9.0929 55.9132
rfemur -63.1782 0.785773 13.4657
rtibia 71.5979
rfoot -11.4689 -3.50546
rtoes -45.4615
lfemur 10.6239 7.09911 -27.3668
ltibia 24.3948
lfoot -2.99425 -1.84221
ltoes -3.61091
233
root 9.87323 14.3353 1.29982 -130.559 66.4673 -147.626
lowerback 15.2272 -7.75638 -2.70085
upperback 8.16878 -9.88602 5.25604
thorax 1.73944 -5.01712 8.31876
lowerneck -5.22262 10.9064 -5.11693
upperneck -7.90718 15.2774 3.17989
head -2.33489 7.84829 1.70577
rclavicle 9.06458e-014 3.18055e-015
rhumerus -22.1292 -6.80617 -85.1032
rradius 115.584
rwrist -44.4298
rhand -22.1091 13.5533
rfingers 7.12502
rthumb 4.30343 -16.383
lclavicle 9.06458e-014 3.18055e-015
lhumerus -24.6182 -9.24376 89.9027
lradius 80.0239
lwrist 14.2992
lhand -36.0801 25.8732
lfingers 7.12502
lthumb -9.18708 55.6531
rfemur -63.2849 0.923675 13.4236
rtibia 66.9345
rfoot -11.7159 -2.28252
rtoes -46.4059
lfemur 13.1302 5.18182 -28.3018
ltibia 22.8154
lfoot -1.4207 0.262723
ltoes -5.52178
234
root 10.3651 14.3261 1.0876 -130.148 66.8993 -147.187
lowerback 14.5503 -7.66719 -2.72411
upperback 7.97402 -9.8017 5.51723
thorax 1.92508 -4.99483 8.51763
lowerneck -5.7895 10.9666 -4.68517
upperneck -6.94029 15.2758 2.69927
head -1.83599 7.8322 1.56118
rclavicle -8.26944e-014 9.54166e-015
rhumerus -19.0465 -6.17757 -86.0423
rradius 115.413
rwrist -41.8269
rhand -20.4943 12.7288
rfingers 7.12502
rthumb 5.86261 -17.1701
lclavicle -8.26944e-014 9.54166e-015
lhumerus -26.221 -10.3017 91.138
lradius 79.1291
lwrist 13.9448
lhand -36.0283 25.4657
lfingers 7.12502
lthumb -9.13707 55.2478
rfemur -63.1255 0.887726 13.5172
rtibia 62.5214
rfoot -11.821 -1.06076
rtoes -47.0978
lfemur 14.9011 3.58231 -29.407
ltibia 22.7106
lfoot -0.478191 2.06446
ltoes -7.18477
235
root 10.8526 14.3107 0.876352 -129.92 67.3413 -146.871
lowerback 13.964 -7.54779 -2.7436
upperback 7.80856 -9.67111 5.73505
thorax 2.07854 -4.94465 8.6774
lowerneck -6.36965 10.9925 -4.21793
upperneck -6.11258 15.241 2.19257
head -1.38478 7.79982 1.40399
rclavicle -6.52014e-014 -2.70347e-014
rhumerus -15.9445 -5.4153 -87.1165
rradius 115.292
rwrist -38.8935
rhand -18.7854 11.9155
rfingers 7.12502
rthumb 7.51226 -17.9311
lclavicle -6.52014e-014 -2.70347e-014
lhumerus -27.9553 -11.3131 92.57
lradius 77.8819
lwrist 13.6556
lhand -35.8442 24.9802
lfingers 7.12502
lthumb -8.95946 54.77
rfemur -62.7031 0.690812 13.7344
rtibia 58.5218
rfoot -11.7664 0.18188
rtoes -47.449
lfemur 15.8779 2.52848 -30.5221
ltibia 24.2313
lfoot -0.125105 3.33967
ltoes -8.35654
236
root 11.3352 14.29 0.668112 -129.925 67.7743 -146.7
lowerback 13.5141 -7.39582 -2.77744
upperback 7.68651 -9.49105 5.91134
thorax 2.19296 -4.86562 8.8159
lowerneck -6.95381 10.9828 -3.73977
upperneck -5.46407 15.1717 1.6778
head -0.996937 7.75167 1.24028
rclavicle 8.18993e-014 -2.70347e-014
rhumerus -12.8335 -4.48337 -88.3023
rradius 115.2
rwrist -35.5381
rhand -17.0125 11.1361
rfingers 7.12502
rthumb 9.22324 -18.6422
lclavicle 8.18993e-014 -2.70347e-014
lhumerus -29.792 -12.2377 94.1812
lradius 76.3069
lwrist 13.4905
lhand -35.5358 24.5239
lfingers 7.12502
lthumb -8.66188 54.3262
rfemur -62.0265 0.367327 14.0496
rtibia 55.0974
rfoot -11.5626 1.36998
rtoes -47.4555
lfemur 16.1369 2.12357 -31.5137
ltibia 27.2325
lfoot -0.21035 4.03828
ltoes -8.86677
237
root 11.8126 14.2659 0.463937 -130.166 68.1732 -146.646
lowerback 13.2296 -7.21033 -2.8207
upperback 7.62152 -9.25805 6.05023
thorax 2.26597 -4.7559 8.93763
lowerneck -7.53988 10.9363 -3.27438
upperneck -5.02062 15.0667 1.17832
head -0.682071 7.68832 1.07806
rclavicle -1.20861e-013 3.81667e-014
rhumerus -9.71701 -3.34632 -89.5661
rradius 115.109
rwrist -31.7531
rhand -15.2179 10.4223
rfingers 7.12502
rthumb 10.9546 -19.2719
lclavicle -1.20861e-013 3.81667e-014
lhumerus -31.6995 -13.0393 95.9362
lradius 74.4369
lwrist 13.5139
lhand -35.1211 24.1949
lfingers 7.12502
lthumb -8.26167 54.0133
rfemur -61.1085 -0.0353773 14.425
rtibia 52.3917
rfoot -11.282 2.39152
rtoes -47.1082
lfemur 15.8289 2.34298 -32.2871
ltibia 31.4106
lfoot -0.531834 4.28539
ltoes -8.68928
238
root 12.2847 14.2403 0.263896 -130.61 68.4997 -146.66
lowerback 13.131 -6.99358 -2.83856
upperback 7.62032 -8.97005 6.15823
thorax 2.28789 -4.61268 9.0316
lowerneck -8.10596 10.8489 -2.84713
upperneck -4.80308 14.9198 0.721895
head -0.451556 7.60798 0.92532
rclavicle -1.24837e-013 8.5875e-014
rhumerus -6.61202 -1.97972 -90.8599
rradius 114.987
rwrist -27.6225
rhand -13.4459 9.80068
rfingers 7.12502
rthumb 12.6633 -19.7954
lclavicle -1.24837e-013 8.5875e-014
lhumerus -33.6545 -13.6944 97.7885
lradius 72.3079
lwrist 13.7716
lhand -34.6328 24.0489
lfingers 7.12502
lthumb -7.79041 53.8854
rfemur -59.9489 -0.467986 14.8199
rtibia 50.5029
rfoot -11.0589 3.09742
rtoes -46.4851
lfemur 15.1025 3.08159 -32.7752
ltibia 36.4712
lfoot -0.927958 4.3209
ltoes -7.96468
